<svg width="32" height="32" viewBox="0 0 32 32" fill="none" xmlns="http://www.w3.org/2000/svg">
<path fill-rule="evenodd" clip-rule="evenodd" d="M16 32C24.8366 32 32 24.8366 32 16C32 7.16344 24.8366 0 16 0C7.16344 0 0 7.16344 0 16C0 24.8366 7.16344 32 16 32Z" fill="#E5E8F0"/>
<path fill-rule="evenodd" clip-rule="evenodd" d="M21.4468 19.9502C21.9574 20.4626 21.9574 21.1459 21.4468 21.6584C21.2766 21.8292 20.9362 22 20.5957 22C20.2553 22 20.0851 21.8292 19.7447 21.6584L16 17.7295L12.0851 21.6584C11.9149 21.8292 11.5745 22 11.234 22C10.8936 22 10.7234 21.8292 10.383 21.6584C9.87234 21.1459 9.87234 20.4626 10.383 19.9502L14.4681 16.0214L10.5532 12.0925C10.0426 11.5801 10.0426 10.8968 10.5532 10.3843C11.0638 9.87189 11.7447 9.87189 12.2553 10.3843L16 14.484L19.9149 10.5552C20.4255 10.0427 21.1064 10.0427 21.617 10.5552C22.1277 11.0676 22.1277 11.7509 21.617 12.2633L17.7021 16.0214L21.4468 19.9502Z" fill="#7C8CAB"/>
</svg>
