<?xml version="1.0" encoding="iso-8859-1"?>
<!-- Generator: Adobe Illustrator 19.0.0, SVG Export Plug-In . SVG Version: 6.00 Build 0)  -->
<svg version="1.1" id="Layer_1" xmlns="http://www.w3.org/2000/svg" xmlns:xlink="http://www.w3.org/1999/xlink" x="0px" y="0px"
	 viewBox="0 0 392.598 392.598" style="enable-background:new 0 0 392.598 392.598;" xml:space="preserve">
<path style="fill:#FFFFFF;" d="M206.545,335.644H62.966c-6.012,0-10.925-4.849-10.925-10.925c0-6.012,4.848-10.925,10.925-10.925
	h136.533c-1.164-6.077-1.875-12.347-1.875-18.747c0-9.568,1.487-18.877,4.073-27.604H63.224c-6.012,0-10.925-4.849-10.925-10.925
	c0-6.012,4.848-10.925,10.925-10.925h148.04c12.412-21.01,32.517-37.042,56.436-44.024V32.711c0-6.012-4.848-10.925-10.925-10.925
	H32.711c-6.012,0-10.925,4.848-10.925,10.925v327.111c0,6.012,4.848,10.925,10.925,10.925h201.051
	C222.255,361.309,212.881,349.349,206.545,335.644z"/>
<path style="fill:#56ACE0;" d="M245.851,54.562v155.604l-0.259,1.099c-14.158,8.404-25.988,20.299-34.392,34.457H63.16
	c-6.012,0-10.925,4.848-10.925,10.861s4.848,10.925,10.925,10.925h138.537c-2.651,8.727-4.073,17.972-4.073,27.604
	c0,6.4,0.711,12.671,1.875,18.747H62.966c-6.012,0-10.925,4.848-10.925,10.925c0,6.012,4.848,10.861,10.925,10.861h143.58
	c2.133,4.655,4.655,9.051,7.434,13.317H54.562c-6.012,0-10.925-4.848-10.925-10.861V54.562c0-6.012,4.848-10.925,10.925-10.925
	H234.99C241.002,43.636,245.851,48.549,245.851,54.562z"/>
<path style="fill:#FFFFFF;" d="M138.667,160.97c0-4.396-2.78-8.404-6.853-9.762c-16.549-5.236-34.521-5.236-51.071,0
	c-4.008,1.293-6.853,5.236-6.853,9.762v27.539h64.776V160.97L138.667,160.97z"/>
<g>
	<path style="fill:#FFC10D;" d="M106.343,73.891c-5.624,0-10.279,4.655-10.279,10.279c0,5.624,4.655,10.279,10.279,10.279
		s10.279-4.655,10.279-10.279C116.493,78.481,111.968,73.891,106.343,73.891z"/>
	<path style="fill:#FFC10D;" d="M295.111,219.475c-41.697,0-75.636,33.939-75.636,75.636s33.939,75.636,75.636,75.636
		s75.636-33.939,75.636-75.636S336.808,219.475,295.111,219.475z"/>
</g>
<g>
	<path style="fill:#194F82;" d="M63.03,210.23h86.562c6.012,0,10.925-4.848,10.925-10.925v-38.4
		c0-14.093-8.857-26.376-22.044-30.513c-20.816-6.659-43.507-6.659-64.323,0c-13.188,4.202-22.044,16.485-22.044,30.513v38.4
		C52.17,205.382,57.018,210.23,63.03,210.23z M73.891,160.97c0-4.396,2.78-8.404,6.853-9.762c16.549-5.236,34.521-5.236,51.071,0
		c4.008,1.293,6.853,5.236,6.853,9.762v27.539H73.891V160.97z"/>
	<path style="fill:#194F82;" d="M106.214,116.234c17.713,0,32.065-14.352,32.065-32.065s-14.352-32.065-32-32.065
		c-17.713,0-32.129,14.352-32.129,32.065C74.149,101.818,88.566,116.234,106.214,116.234z M106.343,73.891
		c5.624,0,10.279,4.655,10.279,10.279c-0.065,5.624-4.655,10.279-10.279,10.279S96.065,89.794,96.065,84.17
		C96.065,78.481,100.655,73.891,106.343,73.891z"/>
	<path style="fill:#194F82;" d="M190.642,90.246h35.879c6.012,0,10.925-4.848,10.925-10.925c0-6.077-4.848-10.925-10.925-10.925
		h-35.879c-6.012,0-10.925,4.848-10.925,10.925C179.717,85.398,184.63,90.246,190.642,90.246z"/>
	<path style="fill:#194F82;" d="M190.642,148.687h35.879c6.012,0,10.925-4.848,10.925-10.925s-4.848-10.925-10.925-10.925h-35.879
		c-6.012,0-10.925,4.848-10.925,10.925S184.63,148.687,190.642,148.687z"/>
	<path style="fill:#194F82;" d="M190.642,207.192h35.879c6.012,0,10.925-4.848,10.925-10.925s-4.848-10.925-10.925-10.925h-35.879
		c-6.012,0-10.925,4.848-10.925,10.925C179.717,202.279,184.63,207.192,190.642,207.192z"/>
	<path style="fill:#194F82;" d="M295.111,197.689c-1.939,0-3.685,0.129-5.624,0.323V32.711C289.487,14.675,274.812,0,256.776,0
		H32.711C14.675,0,0,14.675,0,32.711v327.111c0,18.101,14.675,32.776,32.711,32.776c0,0,262.982,0,263.046,0
		c53.398-0.388,96.84-43.895,96.84-97.422C392.533,241.39,348.832,197.689,295.111,197.689z M32.711,370.747
		c-5.947,0-10.925-4.978-10.925-10.925V32.711c0-6.012,4.848-10.925,10.925-10.925h224.065c6.012,0,10.925,4.848,10.925,10.925
		v168.986c-23.855,7.046-43.96,23.014-56.436,44.024H63.224c-6.012,0-10.925,4.848-10.925,10.925
		c0,6.012,4.848,10.925,10.925,10.925h138.537c-2.651,8.727-4.073,18.036-4.073,27.604c0,6.4,0.711,12.671,1.875,18.747H62.966
		c-6.012,0-10.925,4.849-10.925,10.925c0,6.012,4.848,10.925,10.925,10.925h143.58c6.335,13.705,15.709,25.665,27.216,35.103H32.711
		V370.747z M295.111,370.747c-41.697,0-75.636-33.939-75.636-75.636s33.939-75.636,75.636-75.636s75.636,33.939,75.636,75.636
		S336.808,370.747,295.111,370.747z"/>
	<path style="fill:#194F82;" d="M340.945,260.719c-4.396-3.168-10.602-2.263-14.481,1.616l-42.861,42.861l-20.234-20.234
		c-4.719-4.719-12.606-4.267-16.614,1.422c-3.168,4.396-2.263,10.602,1.616,14.481l27.604,27.604c4.267,4.267,11.119,4.267,15.451,0
		l51.006-51.006C347.022,272.614,346.57,264.727,340.945,260.719z"/>
</g>
<g>
</g>
<g>
</g>
<g>
</g>
<g>
</g>
<g>
</g>
<g>
</g>
<g>
</g>
<g>
</g>
<g>
</g>
<g>
</g>
<g>
</g>
<g>
</g>
<g>
</g>
<g>
</g>
<g>
</g>
</svg>
