<svg id="Capa_1" enable-background="new 0 0 512 512" height="512" viewBox="0 0 512 512" width="512" xmlns="http://www.w3.org/2000/svg"><g><path d="m423.494 95.488 27.9 19.439c3.382 2.357 8.064 1.547 10.44-1.866 2.368-3.398 1.533-8.073-1.866-10.441l-24.688-17.201v-34.399c0-4.142-3.357-7.5-7.5-7.5s-7.5 3.358-7.5 7.5v38.314c.001 2.453 1.201 4.751 3.214 6.154z"/><path d="m498.632 460.621c1.278-3.078 1.971-6.404 1.971-9.798v-4.165c0-4.142-3.357-7.5-7.5-7.5s-7.5 3.358-7.5 7.5v4.165c0 2.677-.989 5.175-2.746 7.124h-167.09c-1.757-1.948-2.746-4.446-2.746-7.124v-50.677c6.973 5.67 15.856 9.077 25.522 9.077h4.252v6.344c0 4.142 3.357 7.5 7.5 7.5s7.5-3.358 7.5-7.5v-6.344h83.034v6.344c0 4.142 3.357 7.5 7.5 7.5s7.5-3.358 7.5-7.5v-6.344h4.252c9.667 0 18.55-3.407 25.522-9.077v11.45c0 4.142 3.357 7.5 7.5 7.5s7.5-3.358 7.5-7.5v-50.695c0-14.184-11.54-25.724-25.724-25.724h-35.475v-9.538c0-12.506-10.173-22.68-22.677-22.68h-34.833c-12.504 0-22.677 10.174-22.677 22.68v9.538h-16.091v-150.922c0-17.803-14.483-32.286-32.286-32.286h-278.554c-17.803 0-32.286 14.484-32.286 32.286v181.496c0 17.802 14.483 32.286 32.286 32.286h106.387l-6.895 30.035h-9.953c-13.364 0-24.237 10.873-24.237 24.237 0 1.925.229 3.813.662 5.638h-73.781c-13.492 0-24.469 10.977-24.469 24.469s10.977 24.469 24.469 24.469h463.062c13.492 0 24.469-10.977 24.469-24.469 0-9.497-5.442-17.741-13.368-21.795zm-277.33-32.549h-9.953l-6.895-30.035h93.566v52.787c0 2.431.358 4.827 1.027 7.124h-54.171c.434-1.824.662-3.713.662-5.638.001-13.365-10.872-24.238-24.236-24.238zm264.302-67.17v7.8c0 14.073-11.449 25.522-25.522 25.522h-4.252v-6.344c0-4.142-3.357-7.5-7.5-7.5s-7.5 3.358-7.5 7.5v6.344h-83.034v-6.344c0-4.142-3.357-7.5-7.5-7.5s-7.5 3.358-7.5 7.5v6.344h-4.252c-14.073 0-25.522-11.449-25.522-25.522v-7.8c0-5.865 4.81-10.724 10.724-10.724h151.134c5.913 0 10.724 4.811 10.724 10.724zm-111.385-35.262c0-4.235 3.443-7.68 7.677-7.68h34.833c4.233 0 7.677 3.445 7.677 7.68v9.538h-50.187zm-359.219 40.111v-9.384h34.247c4.143 0 7.5-3.358 7.5-7.5s-3.357-7.5-7.5-7.5h-34.247v-157.112c0-9.532 7.755-17.286 17.286-17.286h278.556c9.531 0 17.286 7.754 17.286 17.286v150.923h-4.384c-6.374 0-12.21 2.336-16.708 6.189h-222.726c-4.143 0-7.5 3.358-7.5 7.5s3.357 7.5 7.5 7.5h214.119c-.263 1.473-.408 2.987-.408 4.534v22.135h-265.735c-9.531.001-17.286-7.753-17.286-17.285zm139.063 32.286h35.002l6.895 30.035h-48.791zm-41.474 54.273c0-5.093 4.144-9.237 9.237-9.237h15.906c.009 0 .018.001.026.001.006 0 .011-.001.017-.001h67.576c.006 0 .011.001.017.001.009 0 .017-.001.026-.001h15.906c5.094 0 9.237 4.144 9.237 9.237 0 2.072-.694 4.037-1.939 5.638h-114.07c-1.246-1.602-1.939-3.566-1.939-5.638zm374.942 39.575h-463.062c-5.221 0-9.469-4.248-9.469-9.469s4.248-9.469 9.469-9.469h463.062c5.221 0 9.469 4.248 9.469 9.469s-4.248 9.469-9.469 9.469z"/><path d="m427.781 173.553c46.438 0 84.219-37.781 84.219-84.219s-37.78-84.219-84.219-84.219-84.22 37.78-84.22 84.219 37.782 84.219 84.22 84.219zm0-153.438c38.167 0 69.219 31.051 69.219 69.219s-31.052 69.219-69.219 69.219c-38.168 0-69.22-31.052-69.22-69.219s31.052-69.219 69.22-69.219z"/></g></svg>